<svg xmlns="http://www.w3.org/2000/svg">
  <!-- Calendar icon -->
  <symbol id="calendar-icon" viewBox="0 0 24 24" fill="none" stroke="currentColor" stroke-width="2" stroke-linecap="round" stroke-linejoin="round">
    <rect x="3" y="4" width="18" height="18" rx="2" ry="2" />
    <line x1="16" y1="2" x2="16" y2="6" />
    <line x1="8" y1="2" x2="8" y2="6" />
    <line x1="3" y1="10" x2="21" y2="10" />
  </symbol>

  <!-- Calendar with check (completed) -->
  <symbol id="calendar-check-icon" viewBox="0 0 24 24" fill="none" stroke="currentColor" stroke-width="2" stroke-linecap="round" stroke-linejoin="round">
    <rect x="3" y="4" width="18" height="18" rx="2" ry="2" />
    <line x1="16" y1="2" x2="16" y2="6" />
    <line x1="8" y1="2" x2="8" y2="6" />
    <line x1="3" y1="10" x2="21" y2="10" />
    <path d="M9 15l3 3 6-6" />
  </symbol>

  <!-- Calendar with money (paid) -->
  <symbol id="calendar-paid-icon" viewBox="0 0 24 24" fill="none" stroke="currentColor" stroke-width="2" stroke-linecap="round" stroke-linejoin="round">
    <rect x="3" y="4" width="18" height="18" rx="2" ry="2" />
    <line x1="16" y1="2" x2="16" y2="6" />
    <line x1="8" y1="2" x2="8" y2="6" />
    <line x1="3" y1="10" x2="21" y2="10" />
    <line x1="12" y1="14" x2="12" y2="20" />
    <line x1="9" y1="17" x2="15" y2="17" />
  </symbol>

  <!-- Calendar with X (cancelled) -->
  <symbol id="calendar-cancel-icon" viewBox="0 0 24 24" fill="none" stroke="currentColor" stroke-width="2" stroke-linecap="round" stroke-linejoin="round">
    <rect x="3" y="4" width="18" height="18" rx="2" ry="2" />
    <line x1="16" y1="2" x2="16" y2="6" />
    <line x1="8" y1="2" x2="8" y2="6" />
    <line x1="3" y1="10" x2="21" y2="10" />
    <line x1="9" y1="14" x2="15" y2="20" />
    <line x1="15" y1="14" x2="9" y2="20" />
  </symbol>

  <!-- Cleaning/broom icon -->
  <symbol id="broom-icon" viewBox="0 0 24 24" fill="none" stroke="currentColor" stroke-width="2" stroke-linecap="round" stroke-linejoin="round">
    <path d="M22 5.5V20H14v-4l-4-4 1.5-1.5 4 4V8.5l4 4 1.5-1.5-4-4L19 2.5" />
  </symbol>

  <!-- Sparkle/clean icon -->
  <symbol id="sparkle-icon" viewBox="0 0 24 24" fill="none" stroke="currentColor" stroke-width="2" stroke-linecap="round" stroke-linejoin="round">
    <path d="M12 2v4M12 18v4M4.93 4.93l2.83 2.83M17.07 17.07l2.83 2.83M2 12h4M18 12h4M4.93 19.07l2.83-2.83M17.07 6.93l2.83-2.83" />
  </symbol>

  <!-- WhatsApp icon -->
  <symbol id="whatsapp-icon" viewBox="0 0 24 24" fill="currentColor">
    <path d="M17.472 14.382c-.297-.149-1.758-.867-2.03-.967-.273-.099-.471-.148-.67.15-.197.297-.767.966-.94 1.164-.173.199-.347.223-.644.075-.297-.15-1.255-.463-2.39-1.475-.883-.788-1.48-1.761-1.653-2.059-.173-.297-.018-.458.13-.606.134-.133.298-.347.446-.52.149-.174.198-.298.298-.497.099-.198.05-.371-.025-.52-.075-.149-.669-1.612-.916-2.207-.242-.579-.487-.5-.669-.51-.173-.008-.371-.01-.57-.01-.198 0-.52.074-.792.372-.272.297-1.04 1.016-1.04 2.479 0 1.462 1.065 2.875 1.213 3.074.149.198 2.096 3.2 5.077 4.487.709.306 1.262.489 1.694.625.712.227 1.36.195 1.871.118.571-.085 1.758-.719 2.006-1.413.248-.694.248-1.289.173-1.413-.074-.124-.272-.198-.57-.347m-5.421 7.403h-.004a3.034 3.034 0 0 0 0-.063 1.42 1.42 0 0 1 .02-.02c.183-.183.183-.475 0-.658a.8.8 0 0 0-.01-.011h-.004a1.27 1.27 0 0 1 0 .752" />
  </symbol>

  <!-- Checkmark icon -->
  <symbol id="check-icon" viewBox="0 0 24 24" fill="none" stroke="currentColor" stroke-width="2" stroke-linecap="round" stroke-linejoin="round">
    <polyline points="20 6 9 17 4 12" />
  </symbol>

  <!-- X/close icon -->
  <symbol id="x-icon" viewBox="0 0 24 24" fill="none" stroke="currentColor" stroke-width="2" stroke-linecap="round" stroke-linejoin="round">
    <line x1="18" y1="6" x2="6" y2="18" />
    <line x1="6" y1="6" x2="18" y2="18" />
  </symbol>

  <!-- Trash/delete icon -->
  <symbol id="trash-icon" viewBox="0 0 24 24" fill="none" stroke="currentColor" stroke-width="2" stroke-linecap="round" stroke-linejoin="round">
    <polyline points="3 6 5 6 21 6" />
    <path d="M19 6v14a2 2 0 0 1-2 2H7a2 2 0 0 1-2-2V6m3 0V4a2 2 0 0 1 2-2h4a2 2 0 0 1 2 2v2" />
  </symbol>

  <!-- Edit/pencil icon -->
  <symbol id="edit-icon" viewBox="0 0 24 24" fill="none" stroke="currentColor" stroke-width="2" stroke-linecap="round" stroke-linejoin="round">
    <path d="M11 4H4a2 2 0 0 0-2 2v14a2 2 0 0 0 2 2h14a2 2 0 0 0 2-2v-7" />
    <path d="M18.5 2.5a2.121 2.121 0 0 1 3 3L12 15l-4 1 1-4 9.5-9.5z" />
  </symbol>

  <!-- Arrow left -->
  <symbol id="chevron-left-icon" viewBox="0 0 24 24" fill="none" stroke="currentColor" stroke-width="2" stroke-linecap="round" stroke-linejoin="round">
    <path d="M15 18l-6-6 6-6" />
  </symbol>

  <!-- Arrow right -->
  <symbol id="chevron-right-icon" viewBox="0 0 24 24" fill="none" stroke="currentColor" stroke-width="2" stroke-linecap="round" stroke-linejoin="round">
    <path d="M9 18l6-6-6-6" />
  </symbol>

  <!-- Home icon -->
  <symbol id="home-icon" viewBox="0 0 24 24" fill="none" stroke="currentColor" stroke-width="2" stroke-linecap="round" stroke-linejoin="round">
    <path d="M3 9l9-7 9 7v11a2 2 0 0 1-2 2H5a2 2 0 0 1-2-2z" />
    <polyline points="9 22 9 12 15 12 15 22" />
  </symbol>

  <!-- User/profile icon -->
  <symbol id="user-icon" viewBox="0 0 24 24" fill="none" stroke="currentColor" stroke-width="2" stroke-linecap="round" stroke-linejoin="round">
    <path d="M20 21v-2a4 4 0 0 0-4-4H8a4 4 0 0 0-4 4v2" />
    <circle cx="12" cy="7" r="4" />
  </symbol>

  <!-- Logout icon -->
  <symbol id="logout-icon" viewBox="0 0 24 24" fill="none" stroke="currentColor" stroke-width="2" stroke-linecap="round" stroke-linejoin="round">
    <path d="M9 21H5a2 2 0 0 1-2-2V5a2 2 0 0 1 2-2h4" />
    <polyline points="16 17 21 12 16 7" />
    <line x1="21" y1="12" x2="9" y2="12" />
  </symbol>

  <!-- Settings/gear icon -->
  <symbol id="settings-icon" viewBox="0 0 24 24" fill="none" stroke="currentColor" stroke-width="2" stroke-linecap="round" stroke-linejoin="round">
    <circle cx="12" cy="12" r="3" />
    <path d="M19.4 15a1.65 1.65 0 0 0 .33 1.82l.06.06a2 2 0 0 1 0 2.83 2 2 0 0 1-2.83 0l-.06-.06a1.65 1.65 0 0 0-1.82-.33 1.65 1.65 0 0 0-1 1.51V21a2 2 0 0 1-2 2 2 2 0 0 1-2-2v-.09A1.65 1.65 0 0 0 9 19.4a1.65 1.65 0 0 0-1.82.33l-.06.06a2 2 0 0 1-2.83 0 2 2 0 0 1 0-2.83l.06-.06a1.65 1.65 0 0 0 .33-1.82 1.65 1.65 0 0 0-1.51-1H3a2 2 0 0 1-2-2 2 2 0 0 1 2-2h.09A1.65 1.65 0 0 1 4.6 9a1.65 1.65 0 0 0 .33-1.82l-.06-.06a2 2 0 0 1 0-2.83 2 2 0 0 1 2.83 0l.06.06a1.65 1.65 0 0 0 1.82.33H9a1.65 1.65 0 0 0 1-1.51V3a2 2 0 0 1 2-2 2 2 0 0 1 2 2v.09a1.65 1.65 0 0 0 1 1.51 1.65 1.65 0 0 0 1.82-.33l.06-.06a2 2 0 0 1 2.83 0 2 2 0 0 1 0 2.83l-.06.06a1.65 1.65 0 0 0-.33 1.82V9a1.65 1.65 0 0 0 1.51 1H21a2 2 0 0 1 2 2 2 2 0 0 1-2 2h-.09a1.65 1.65 0 0 1-1.51 1z" />
  </symbol>

  <!-- Chevron down -->
  <symbol id="chevron-down-icon" viewBox="0 0 24 24" fill="none" stroke="currentColor" stroke-width="2" stroke-linecap="round" stroke-linejoin="round">
    <polyline points="6 9 12 15 18 9" />
  </symbol>

  <!-- Clock/time icon -->
  <symbol id="clock-icon" viewBox="0 0 24 24" fill="none" stroke="currentColor" stroke-width="2" stroke-linecap="round" stroke-linejoin="round">
    <circle cx="12" cy="12" r="10" />
    <polyline points="12 6 12 12 16 14" />
  </symbol>

  <!-- Money/dollar icon -->
  <symbol id="money-icon" viewBox="0 0 24 24" fill="none" stroke="currentColor" stroke-width="2" stroke-linecap="round" stroke-linejoin="round">
    <line x1="12" y1="1" x2="12" y2="23" />
    <path d="M17 5H9.5a3.5 3.5 0 0 0 0 7h5a3.5 3.5 0 0 1 0 7H6" />
  </symbol>

  <!-- Alert/warning icon -->
  <symbol id="alert-icon" viewBox="0 0 24 24" fill="none" stroke="currentColor" stroke-width="2" stroke-linecap="round" stroke-linejoin="round">
    <path d="M10.29 3.86L1.82 18a2 2 0 0 0 1.71 3h16.94a2 2 0 0 0 1.71-3L22.11 3.86a2 2 0 0 0-3.42 0z" />
    <line x1="12" y1="9" x2="12" y2="13" />
    <line x1="12" y1="17" x2="12.01" y2="17" />
  </symbol>

  <!-- Info icon -->
  <symbol id="info-icon" viewBox="0 0 24 24" fill="none" stroke="currentColor" stroke-width="2" stroke-linecap="round" stroke-linejoin="round">
    <circle cx="12" cy="12" r="10" />
    <line x1="12" y1="16" x2="12" y2="12" />
    <line x1="12" y1="8" x2="12.01" y2="8" />
  </symbol>

  <!-- Search icon -->
  <symbol id="search-icon" viewBox="0 0 24 24" fill="none" stroke="currentColor" stroke-width="2" stroke-linecap="round" stroke-linejoin="round">
    <circle cx="11" cy="11" r="8" />
    <line x1="21" y1="21" x2="16.65" y2="16.65" />
  </symbol>

  <!-- Filter icon -->
  <symbol id="filter-icon" viewBox="0 0 24 24" fill="none" stroke="currentColor" stroke-width="2" stroke-linecap="round" stroke-linejoin="round">
    <polygon points="22 3 2 3 10 12.46 10 19.14 21 21 21 16.14 22 3" />
  </symbol>

  <!-- Chevron up/down for select -->
  <symbol id="chevron-up-down-icon" viewBox="0 0 24 24" fill="none" stroke="currentColor" stroke-width="2" stroke-linecap="round" stroke-linejoin="round">
    <polyline points="6 15 12 9 18 15" />
    <polyline points="6 9 12 15 18 9" />
  </symbol>

  <!-- Menu/hamburger icon -->
  <symbol id="menu-icon" viewBox="0 0 24 24" fill="none" stroke="currentColor" stroke-width="2" stroke-linecap="round" stroke-linejoin="round">
    <line x1="3" y1="12" x2="21" y2="12" />
    <line x1="3" y1="6" x2="21" y2="6" />
    <line x1="3" y1="18" x2="21" y2="18" />
  </symbol>

  <!-- Refresh/sync icon -->
  <symbol id="refresh-icon" viewBox="0 0 24 24" fill="none" stroke="currentColor" stroke-width="2" stroke-linecap="round" stroke-linejoin="round">
    <path d="M23 4v6h-6" />
    <path d="M1 20v-6h6" />
    <path d="M3.51 9a9 9 0 0 1 14.85-3.36L23 10M1 14l4.64 4.36A9 9 0 0 0 20.49 15" />
  </symbol>

  <!-- Bell/notification icon -->
  <symbol id="bell-icon" viewBox="0 0 24 24" fill="none" stroke="currentColor" stroke-width="2" stroke-linecap="round" stroke-linejoin="round">
    <path d="M18 8A6 6 0 0 0 6 8c0 7-3 9-3 9h18s-3-2-3-9" />
    <path d="M13.73 21a2 2 0 0 1-3.46 0" />
  </symbol>

  <!-- Arrow up -->
  <symbol id="arrow-up-icon" viewBox="0 0 24 24" fill="none" stroke="currentColor" stroke-width="2" stroke-linecap="round" stroke-linejoin="round">
    <line x1="12" y1="19" x2="12" y2="5" />
    <polyline points="5 12 12 5 19 12" />
  </symbol>

  <!-- Arrow down -->
  <symbol id="arrow-down-icon" viewBox="0 0 24 24" fill="none" stroke="currentColor" stroke-width="2" stroke-linecap="round" stroke-linejoin="round">
    <line x1="12" y1="5" x2="12" y2="19" />
    <polyline points="19 12 12 19 5 12" />
  </symbol>

  <!-- Eye/view icon -->
  <symbol id="eye-icon" viewBox="0 0 24 24" fill="none" stroke="currentColor" stroke-width="2" stroke-linecap="round" stroke-linejoin="round">
    <path d="M1 12s4-8 11-8 11 8 11 8-4 8-11 8-11-8-11-8z" />
    <circle cx="12" cy="12" r="3" />
  </symbol>

  <!-- Eye off/hide icon -->
  <symbol id="eye-off-icon" viewBox="0 0 24 24" fill="none" stroke="currentColor" stroke-width="2" stroke-linecap="round" stroke-linejoin="round">
    <path d="M17.94 17.94A10.07 10.07 0 0 1 12 20c-7 0-11-8-11-8a18.45 18.45 0 0 1 5.06-5.94M9.9 4.24A9.12 9.12 0 0 1 12 4c7 0 11 8 11 8a18.5 18.5 0 0 1-2.16 3.19M1 1l22 22" />
  </symbol>

  <!-- Download icon -->
  <symbol id="download-icon" viewBox="0 0 24 24" fill="none" stroke="currentColor" stroke-width="2" stroke-linecap="round" stroke-linejoin="round">
    <path d="M21 15v4a2 2 0 0 1-2 2H5a2 2 0 0 1-2-2v-4" />
    <polyline points="7 10 12 15 17 10" />
    <line x1="12" y1="15" x2="12" y2="3" />
  </symbol>

  <!-- Upload icon -->
  <symbol id="upload-icon" viewBox="0 0 24 24" fill="none" stroke="currentColor" stroke-width="2" stroke-linecap="round" stroke-linejoin="round">
    <path d="M21 15v4a2 2 0 0 1-2 2H5a2 2 0 0 1-2-2v-4" />
    <polyline points="17 8 12 3 7 8" />
    <line x1="12" y1="3" x2="12" y2="15" />
  </symbol>
</svg>